<svg id="visual" viewBox="0 0 960 140" width="960" height="140" xmlns="http://www.w3.org/2000/svg" xmlns:xlink="http://www.w3.org/1999/xlink" version="1.1"><rect x="0" y="0" width="960" height="140" fill="#000013"></rect><path d="M0 26L13.3 27C26.7 28 53.3 30 80 36.7C106.7 43.3 133.3 54.7 160 56.3C186.7 58 213.3 50 240 43.7C266.7 37.3 293.3 32.7 320 29.8C346.7 27 373.3 26 400 25.7C426.7 25.3 453.3 25.7 480 32.3C506.7 39 533.3 52 560 53.5C586.7 55 613.3 45 640 43.2C666.7 41.3 693.3 47.7 720 48.7C746.7 49.7 773.3 45.3 800 47.2C826.7 49 853.3 57 880 57.7C906.7 58.3 933.3 51.7 946.7 48.3L960 45L960 141L946.7 141C933.3 141 906.7 141 880 141C853.3 141 826.7 141 800 141C773.3 141 746.7 141 720 141C693.3 141 666.7 141 640 141C613.3 141 586.7 141 560 141C533.3 141 506.7 141 480 141C453.3 141 426.7 141 400 141C373.3 141 346.7 141 320 141C293.3 141 266.7 141 240 141C213.3 141 186.7 141 160 141C133.3 141 106.7 141 80 141C53.3 141 26.7 141 13.3 141L0 141Z" fill="#12305d"></path><path d="M0 67L13.3 69.5C26.7 72 53.3 77 80 78.5C106.7 80 133.3 78 160 71.8C186.7 65.7 213.3 55.3 240 53.8C266.7 52.3 293.3 59.7 320 64.3C346.7 69 373.3 71 400 71.7C426.7 72.3 453.3 71.7 480 69.5C506.7 67.3 533.3 63.7 560 59C586.7 54.3 613.3 48.7 640 51.7C666.7 54.7 693.3 66.3 720 73.2C746.7 80 773.3 82 800 82.3C826.7 82.7 853.3 81.3 880 75.3C906.7 69.3 933.3 58.7 946.7 53.3L960 48L960 141L946.7 141C933.3 141 906.7 141 880 141C853.3 141 826.7 141 800 141C773.3 141 746.7 141 720 141C693.3 141 666.7 141 640 141C613.3 141 586.7 141 560 141C533.3 141 506.7 141 480 141C453.3 141 426.7 141 400 141C373.3 141 346.7 141 320 141C293.3 141 266.7 141 240 141C213.3 141 186.7 141 160 141C133.3 141 106.7 141 80 141C53.3 141 26.7 141 13.3 141L0 141Z" fill="#122c51"></path><path d="M0 85L13.3 82.8C26.7 80.7 53.3 76.3 80 78C106.7 79.7 133.3 87.3 160 90.8C186.7 94.3 213.3 93.7 240 92.2C266.7 90.7 293.3 88.3 320 84.2C346.7 80 373.3 74 400 73.5C426.7 73 453.3 78 480 81.8C506.7 85.7 533.3 88.3 560 85.5C586.7 82.7 613.3 74.3 640 73C666.7 71.7 693.3 77.3 720 80.2C746.7 83 773.3 83 800 80.3C826.7 77.7 853.3 72.3 880 73.5C906.7 74.7 933.3 82.3 946.7 86.2L960 90L960 141L946.7 141C933.3 141 906.7 141 880 141C853.3 141 826.7 141 800 141C773.3 141 746.7 141 720 141C693.3 141 666.7 141 640 141C613.3 141 586.7 141 560 141C533.3 141 506.7 141 480 141C453.3 141 426.7 141 400 141C373.3 141 346.7 141 320 141C293.3 141 266.7 141 240 141C213.3 141 186.7 141 160 141C133.3 141 106.7 141 80 141C53.3 141 26.7 141 13.3 141L0 141Z" fill="#132846"></path><path d="M0 108L13.3 104.3C26.7 100.7 53.3 93.3 80 90.3C106.7 87.3 133.3 88.7 160 92.8C186.7 97 213.3 104 240 105.3C266.7 106.7 293.3 102.3 320 100.5C346.7 98.7 373.3 99.3 400 101C426.7 102.7 453.3 105.3 480 105.7C506.7 106 533.3 104 560 104.2C586.7 104.3 613.3 106.7 640 105.5C666.7 104.3 693.3 99.7 720 96.5C746.7 93.3 773.3 91.7 800 93.5C826.7 95.3 853.3 100.7 880 103.8C906.7 107 933.3 108 946.7 108.5L960 109L960 141L946.7 141C933.3 141 906.7 141 880 141C853.3 141 826.7 141 800 141C773.3 141 746.7 141 720 141C693.3 141 666.7 141 640 141C613.3 141 586.7 141 560 141C533.3 141 506.7 141 480 141C453.3 141 426.7 141 400 141C373.3 141 346.7 141 320 141C293.3 141 266.7 141 240 141C213.3 141 186.7 141 160 141C133.3 141 106.7 141 80 141C53.3 141 26.7 141 13.3 141L0 141Z" fill="#14243b"></path><path d="M0 114L13.3 116.2C26.7 118.3 53.3 122.7 80 124.8C106.7 127 133.3 127 160 125.5C186.7 124 213.3 121 240 117.5C266.7 114 293.3 110 320 111.2C346.7 112.3 373.3 118.7 400 119C426.7 119.3 453.3 113.7 480 111.8C506.7 110 533.3 112 560 112C586.7 112 613.3 110 640 109C666.7 108 693.3 108 720 109.7C746.7 111.3 773.3 114.7 800 114.7C826.7 114.7 853.3 111.3 880 109.3C906.7 107.3 933.3 106.7 946.7 106.3L960 106L960 141L946.7 141C933.3 141 906.7 141 880 141C853.3 141 826.7 141 800 141C773.3 141 746.7 141 720 141C693.3 141 666.7 141 640 141C613.3 141 586.7 141 560 141C533.3 141 506.7 141 480 141C453.3 141 426.7 141 400 141C373.3 141 346.7 141 320 141C293.3 141 266.7 141 240 141C213.3 141 186.7 141 160 141C133.3 141 106.7 141 80 141C53.3 141 26.7 141 13.3 141L0 141Z" fill="#152030"></path></svg>