<svg id="visual" viewBox="0 0 960 540" width="960" height="540" xmlns="http://www.w3.org/2000/svg" xmlns:xlink="http://www.w3.org/1999/xlink" version="1.1"><rect x="0" y="0" width="960" height="540" fill="#000013"></rect><path d="M0 161L14.5 174C29 187 58 213 87.2 211.5C116.3 210 145.7 181 174.8 180.8C204 180.7 233 209.3 262 220.8C291 232.3 320 226.7 349 221.2C378 215.7 407 210.3 436.2 209C465.3 207.7 494.7 210.3 523.8 211.8C553 213.3 582 213.7 611 213.7C640 213.7 669 213.3 698 207.3C727 201.3 756 189.7 785.2 176.7C814.3 163.7 843.7 149.3 872.8 151.3C902 153.3 931 171.7 945.5 180.8L960 190L960 541L945.5 541C931 541 902 541 872.8 541C843.7 541 814.3 541 785.2 541C756 541 727 541 698 541C669 541 640 541 611 541C582 541 553 541 523.8 541C494.7 541 465.3 541 436.2 541C407 541 378 541 349 541C320 541 291 541 262 541C233 541 204 541 174.8 541C145.7 541 116.3 541 87.2 541C58 541 29 541 14.5 541L0 541Z" fill="#0c0c2d"></path><path d="M0 294L14.5 298C29 302 58 310 87.2 308.8C116.3 307.7 145.7 297.3 174.8 284.8C204 272.3 233 257.7 262 251.7C291 245.7 320 248.3 349 250.5C378 252.7 407 254.3 436.2 263.8C465.3 273.3 494.7 290.7 523.8 288C553 285.3 582 262.7 611 248.3C640 234 669 228 698 233.3C727 238.7 756 255.3 785.2 254.3C814.3 253.3 843.7 234.7 872.8 237.3C902 240 931 264 945.5 276L960 288L960 541L945.5 541C931 541 902 541 872.8 541C843.7 541 814.3 541 785.2 541C756 541 727 541 698 541C669 541 640 541 611 541C582 541 553 541 523.8 541C494.7 541 465.3 541 436.2 541C407 541 378 541 349 541C320 541 291 541 262 541C233 541 204 541 174.8 541C145.7 541 116.3 541 87.2 541C58 541 29 541 14.5 541L0 541Z" fill="#0b132e"></path><path d="M0 351L14.5 355.3C29 359.7 58 368.3 87.2 364.2C116.3 360 145.7 343 174.8 339C204 335 233 344 262 342.3C291 340.7 320 328.3 349 318.5C378 308.7 407 301.3 436.2 306.5C465.3 311.7 494.7 329.3 523.8 339.7C553 350 582 353 611 343C640 333 669 310 698 297.3C727 284.7 756 282.3 785.2 288.3C814.3 294.3 843.7 308.7 872.8 317.8C902 327 931 331 945.5 333L960 335L960 541L945.5 541C931 541 902 541 872.8 541C843.7 541 814.3 541 785.2 541C756 541 727 541 698 541C669 541 640 541 611 541C582 541 553 541 523.8 541C494.7 541 465.3 541 436.2 541C407 541 378 541 349 541C320 541 291 541 262 541C233 541 204 541 174.8 541C145.7 541 116.3 541 87.2 541C58 541 29 541 14.5 541L0 541Z" fill="#0d182f"></path><path d="M0 364L14.5 372.2C29 380.3 58 396.7 87.2 393.7C116.3 390.7 145.7 368.3 174.8 369C204 369.7 233 393.3 262 408.8C291 424.3 320 431.7 349 422C378 412.3 407 385.7 436.2 384.2C465.3 382.7 494.7 406.3 523.8 418.7C553 431 582 432 611 430.2C640 428.3 669 423.7 698 417.7C727 411.7 756 404.3 785.2 399.5C814.3 394.7 843.7 392.3 872.8 393.7C902 395 931 400 945.5 402.5L960 405L960 541L945.5 541C931 541 902 541 872.8 541C843.7 541 814.3 541 785.2 541C756 541 727 541 698 541C669 541 640 541 611 541C582 541 553 541 523.8 541C494.7 541 465.3 541 436.2 541C407 541 378 541 349 541C320 541 291 541 262 541C233 541 204 541 174.8 541C145.7 541 116.3 541 87.2 541C58 541 29 541 14.5 541L0 541Z" fill="#111c30"></path><path d="M0 463L14.5 458.8C29 454.7 58 446.3 87.2 442.5C116.3 438.7 145.7 439.3 174.8 444.2C204 449 233 458 262 457.3C291 456.7 320 446.3 349 450.3C378 454.3 407 472.7 436.2 479.3C465.3 486 494.7 481 523.8 476.8C553 472.7 582 469.3 611 467.8C640 466.3 669 466.7 698 470.3C727 474 756 481 785.2 477C814.3 473 843.7 458 872.8 454.2C902 450.3 931 457.7 945.5 461.3L960 465L960 541L945.5 541C931 541 902 541 872.8 541C843.7 541 814.3 541 785.2 541C756 541 727 541 698 541C669 541 640 541 611 541C582 541 553 541 523.8 541C494.7 541 465.3 541 436.2 541C407 541 378 541 349 541C320 541 291 541 262 541C233 541 204 541 174.8 541C145.7 541 116.3 541 87.2 541C58 541 29 541 14.5 541L0 541Z" fill="#152030"></path></svg>