<svg id="visual" viewBox="0 0 960 200" width="960" height="200" xmlns="http://www.w3.org/2000/svg" xmlns:xlink="http://www.w3.org/1999/xlink" version="1.1"><rect x="0" y="0" width="960" height="200" fill="#0A192E"></rect><path d="M0 108L137 105L274 92L411 117L549 108L686 90L823 128L960 115L960 201L823 201L686 201L549 201L411 201L274 201L137 201L0 201Z" fill="#192e3e"></path><path d="M0 127L137 143L274 110L411 120L549 146L686 132L823 140L960 131L960 201L823 201L686 201L549 201L411 201L274 201L137 201L0 201Z" fill="#14202f"></path><path d="M0 150L137 157L274 161L411 145L549 158L686 164L823 154L960 166L960 201L823 201L686 201L549 201L411 201L274 201L137 201L0 201Z" fill="#0e1421"></path><path d="M0 176L137 182L274 178L411 184L549 160L686 184L823 167L960 167L960 201L823 201L686 201L549 201L411 201L274 201L137 201L0 201Z" fill="#000013"></path></svg>